<svg data-v-fde0c5aa="" xmlns="http://www.w3.org/2000/svg" viewBox="0 0 300 300" class="iconLeft"><!----><defs data-v-fde0c5aa=""><!----></defs><rect data-v-fde0c5aa="" fill="#000000" x="0" y="0" width="300px" height="300px" class="logo-background-square"></rect><defs data-v-fde0c5aa=""><!----></defs><g data-v-fde0c5aa="" id="9f3309c0-61b1-4f45-8d9b-7dec3e9cc41b" fill="#FFFFFF" transform="matrix(4.0445485900177935,0,0,4.0445485900177935,125.07385656840987,112.54748009500706)"><path d="M8.33 5.54L8.33 5.54Q8.23 5.54 8.17 5.48Q8.11 5.42 8.11 5.35Q8.11 5.28 8.18 5.15Q8.25 5.03 8.25 4.91L8.25 4.91Q8.25 4.59 7.92 4.44Q7.59 4.30 7.24 4.30L7.24 4.30Q6.20 4.30 5.08 5.00Q3.95 5.70 3.75 6.68L3.75 6.68Q3.82 7.27 4.33 7.78Q4.84 8.29 5.52 8.66Q6.19 9.03 6.85 9.41Q7.50 9.79 7.95 10.30Q8.40 10.82 8.40 11.36Q8.40 11.90 8.01 12.41Q7.62 12.92 7.23 13.27Q6.85 13.62 6.85 13.64Q6.85 13.66 6.89 13.66L6.89 13.66Q7.74 13.66 9.23 12.73L9.23 12.73L9.37 12.63Q9.46 12.57 9.51 12.57Q9.56 12.57 9.62 12.66Q9.67 12.74 9.67 12.84Q9.67 12.94 9.49 13.03L9.49 13.03Q8.68 13.80 6.46 14.50Q4.24 15.20 2.45 15.20L2.45 15.20Q0 15.20 0 13.78L0 13.78Q0 13.57 0.42 13.17L0.42 13.17Q1.06 12.59 1.20 12.59Q1.34 12.59 1.92 12.94Q2.49 13.29 3.36 13.64Q4.23 13.99 5.08 13.99Q5.94 13.99 6.39 13.45Q6.85 12.92 6.85 12.36Q6.85 11.80 6.37 11.35Q5.89 10.91 5.21 10.56Q4.54 10.22 3.85 9.86Q3.16 9.49 2.69 8.97Q2.21 8.46 2.21 7.84L2.21 7.84Q2.21 6.85 3.32 5.75Q4.42 4.66 5.85 3.99Q7.28 3.32 8.29 3.32L8.29 3.32Q9.55 3.32 9.55 4.16L9.55 4.16Q9.55 4.66 9.09 5.10Q8.64 5.54 8.33 5.54ZM10.16 6.19L10.16 6.19Q9.59 6.19 9.59 9.98L9.59 9.98L9.59 10.82Q9.95 9.90 10.27 8.78Q10.58 7.66 10.58 6.92Q10.58 6.19 10.16 6.19ZM9.73 13.44L9.73 13.44Q9.87 13.44 10.54 12.52Q11.21 11.59 11.40 11.58Q11.58 11.58 11.76 11.89Q11.94 12.19 12.12 12.56Q12.29 12.94 12.68 13.25Q13.08 13.57 13.47 13.57Q13.86 13.57 13.94 13.51Q14.03 13.45 14.08 13.45Q14.13 13.45 14.13 13.57L14.13 13.57Q14.11 13.85 13.68 14.24Q13.24 14.64 12.53 14.64L12.53 14.64Q11.33 14.64 10.85 13.26L10.85 13.26Q10.81 13.17 10.77 13.17Q10.74 13.17 10.67 13.23Q10.60 13.29 10.37 13.55Q10.15 13.82 9.92 14.10Q9.69 14.38 9.63 14.43Q9.58 14.49 9.42 14.49Q9.27 14.49 9.25 14.32L9.25 14.32Q9.13 13.06 9.13 11.68Q9.13 10.30 9.16 9.55Q9.20 8.79 9.31 7.60Q9.42 6.41 9.71 5.66Q10.00 4.90 10.43 4.90L10.43 4.90Q11.34 4.90 11.34 6.17L11.34 6.17Q11.34 7.27 10.75 8.92Q10.16 10.58 9.62 11.55L9.62 11.55Q9.67 13.44 9.73 13.44ZM17.29 12.33L17.29 12.33L17.23 12.73Q17.23 12.98 17.45 13.25Q17.67 13.52 17.96 13.52L17.96 13.52Q18.19 13.52 18.33 13.43L18.33 13.43Q18.63 13.22 18.71 13.14Q18.79 13.06 18.96 13.06Q19.14 13.06 19.14 13.19L19.14 13.19Q19.14 13.33 18.48 14.07L18.48 14.07Q18.27 14.31 17.86 14.57Q17.46 14.84 17.14 14.84Q16.83 14.84 16.67 14.73Q16.51 14.63 16.44 14.41L16.44 14.41Q16.35 14.10 16.35 13.65L16.35 13.65Q16.35 13.59 16.28 13.59Q16.21 13.59 15.96 13.87L15.96 13.87Q15.18 14.69 14.69 14.69Q14.21 14.69 13.95 14.43Q13.69 14.18 13.69 13.79L13.69 13.79Q13.69 13.10 14.06 12.48Q14.42 11.86 14.92 11.48L14.92 11.48Q16.04 10.65 16.66 10.65L16.66 10.65Q17.58 10.68 17.58 11.31L17.58 11.31Q17.58 11.54 17.39 11.75Q17.19 11.97 17.02 11.97Q16.86 11.97 16.56 11.68Q16.27 11.38 15.92 11.38Q15.57 11.38 15.34 11.67Q15.12 11.96 15.12 12.40L15.12 12.40Q15.12 13.13 15.89 13.13L15.89 13.13Q16.20 13.13 16.40 12.98Q16.60 12.82 16.69 12.64L16.69 12.64Q16.93 12.17 17.12 12.17L17.12 12.17Q17.29 12.17 17.29 12.33ZM21.91 13.93L21.92 13.71Q21.92 13.10 21.79 13.10Q21.66 13.10 21.43 13.45Q21.20 13.80 20.93 14.16Q20.66 14.52 20.44 14.52L20.44 14.52Q20.31 14.52 20.05 14.07Q19.80 13.62 19.49 13.18Q19.18 12.74 18.94 12.74L18.94 12.74Q18.87 12.74 18.87 12.67L18.87 12.67Q18.87 12.45 19.40 11.86Q19.94 11.27 20.17 11.27Q20.40 11.27 20.85 12.00Q21.31 12.73 21.46 12.73Q21.62 12.73 22.09 12.15Q22.55 11.58 22.83 11.58Q23.10 11.58 23.23 11.79Q23.37 12.01 23.39 12.26Q23.41 12.52 23.44 12.73Q23.46 12.95 23.55 12.95L23.55 12.95Q23.69 12.95 24.27 12.26Q24.85 11.56 25.12 11.56L25.12 11.56Q25.41 11.56 26.10 12.45L26.10 12.45Q26.35 12.78 26.73 13.05Q27.12 13.33 27.37 13.33Q27.62 13.33 27.86 13.24Q28.10 13.16 28.27 13.16Q28.43 13.16 28.43 13.27L28.43 13.27Q28.43 13.33 28.39 13.37Q28.34 13.41 28.15 13.59Q27.96 13.76 27.84 13.86Q27.72 13.96 27.50 14.13Q27.29 14.31 27.13 14.41L27.13 14.41Q26.71 14.66 26.34 14.66Q25.97 14.66 25.52 14.24Q25.06 13.83 24.73 13.42Q24.40 13.01 24.25 13.01Q24.09 13.01 23.75 13.43Q23.41 13.85 23.05 14.27Q22.69 14.69 22.44 14.69Q22.18 14.69 22.04 14.45Q21.91 14.21 21.91 13.93L21.91 13.93ZM31.51 12.33L31.51 12.33L31.46 12.73Q31.46 12.98 31.68 13.25Q31.89 13.52 32.19 13.52L32.19 13.52Q32.41 13.52 32.55 13.43L32.55 13.43Q32.86 13.22 32.94 13.14Q33.01 13.06 33.19 13.06Q33.36 13.06 33.36 13.19L33.36 13.19Q33.36 13.33 32.70 14.07L32.70 14.07Q32.49 14.31 32.09 14.57Q31.68 14.84 31.37 14.84Q31.05 14.84 30.89 14.73Q30.73 14.63 30.66 14.41L30.66 14.41Q30.58 14.10 30.58 13.65L30.58 13.65Q30.58 13.59 30.51 13.59Q30.44 13.59 30.18 13.87L30.18 13.87Q29.40 14.69 28.92 14.69Q28.43 14.69 28.18 14.43Q27.92 14.18 27.92 13.79L27.92 13.79Q27.92 13.10 28.28 12.48Q28.64 11.86 29.15 11.48L29.15 11.48Q30.27 10.65 30.88 10.65L30.88 10.65Q31.81 10.68 31.81 11.31L31.81 11.31Q31.81 11.54 31.61 11.75Q31.42 11.97 31.25 11.97Q31.08 11.97 30.79 11.68Q30.49 11.38 30.14 11.38Q29.79 11.38 29.57 11.67Q29.34 11.96 29.34 12.40L29.34 12.40Q29.34 13.13 30.11 13.13L30.11 13.13Q30.42 13.13 30.63 12.98Q30.83 12.82 30.91 12.64L30.91 12.64Q31.15 12.17 31.35 12.17L31.35 12.17Q31.51 12.17 31.51 12.33Z"></path></g><defs data-v-fde0c5aa=""><!----></defs><g data-v-fde0c5aa="" id="854e1449-1e8b-4c4d-8a44-b284d696447c" stroke="none" fill="#90185D" transform="matrix(2.2523080177628083,0,0,2.2523080177628083,40,113.96307171579507)"><path d="M9.382 8.675h13.943v13.943L32 31.293V0H.707zM22.618 23.325H8.675V9.382L0 .707V32h31.293z"></path></g><!----></svg>