<svg data-v-423bf9ae="" xmlns="http://www.w3.org/2000/svg" viewBox="0 0 610.716668272398 193" class="fontAboveSlogan"><!----><!----><!----><g data-v-423bf9ae="" id="c92ca416-be84-4948-9b4f-f20a83d8cfc7" fill="#E8E8E8" transform="matrix(9.463722169708296,0,0,9.463722169708296,102.60244129760201,-33.130850439863465)"><path d="M10.54 5.74L10.54 5.74Q10.58 5.98 10.61 6.07Q10.63 6.16 10.63 6.31L10.63 6.31Q10.63 6.78 10.42 7.18Q10.22 7.57 9.87 7.74L9.87 7.74Q9.59 7.36 9.18 7.09Q8.78 6.82 8.29 6.64Q7.81 6.47 7.29 6.38Q6.78 6.30 6.29 6.30L6.29 6.30Q5.80 6.30 5.37 6.38Q4.94 6.45 4.61 6.59Q4.28 6.72 4.09 6.92Q3.91 7.11 3.91 7.36L3.91 7.36Q3.95 7.67 4.28 7.99Q4.62 8.30 5.11 8.60Q5.60 8.90 6.20 9.20Q6.79 9.49 7.36 9.76L7.36 9.76Q8.08 10.09 8.60 10.38Q9.11 10.67 9.45 11.01Q9.79 11.35 9.95 11.79Q10.12 12.22 10.12 12.84L10.12 12.84Q10.12 13.55 9.88 14.18Q9.65 14.80 9.19 15.26Q8.74 15.72 8.09 15.98Q7.45 16.24 6.65 16.24L6.65 16.24Q5.87 16.24 4.96 16.00Q4.05 15.76 3.25 15.35Q2.46 14.94 1.94 14.40Q1.41 13.86 1.41 13.26L1.41 13.26Q1.41 12.98 1.57 12.54Q1.74 12.11 2.16 11.63L2.16 11.63Q2.20 12.05 2.61 12.63Q3.02 13.20 3.85 13.69L3.85 13.69Q4.62 14.14 5.44 14.34Q6.26 14.55 6.97 14.55L6.97 14.55Q7.76 14.55 8.25 14.35Q8.74 14.15 9.02 13.88Q9.30 13.61 9.41 13.33Q9.52 13.05 9.53 12.88L9.53 12.88Q9.52 12.60 9.28 12.34Q9.03 12.08 8.62 11.84Q8.20 11.59 7.66 11.34Q7.11 11.09 6.52 10.84L6.52 10.84Q5.64 10.44 5.00 10.10Q4.37 9.76 3.96 9.40Q3.54 9.04 3.35 8.65Q3.16 8.26 3.16 7.76L3.16 7.76Q3.16 6.97 3.64 6.27Q4.12 5.57 5.01 5.21L5.01 5.21Q5.46 5.01 5.97 4.93Q6.48 4.84 6.97 4.84L6.97 4.84Q7.90 4.84 8.78 5.10Q9.66 5.35 10.54 5.74ZM11.05 14.94L11.05 14.94Q11.05 14.45 11.14 13.78Q11.24 13.12 11.43 12.36Q11.62 11.61 11.88 10.78Q12.14 9.95 12.46 9.13L12.46 9.13Q12.74 8.39 13.11 7.63Q13.48 6.87 13.92 6.15Q14.35 5.42 14.82 4.76Q15.29 4.10 15.76 3.56L15.76 3.56Q15.99 3.56 16.25 3.61Q16.51 3.67 16.75 3.76Q17.00 3.85 17.20 3.98Q17.40 4.10 17.53 4.23L17.53 4.23Q16.48 5.31 15.64 6.40Q14.80 7.50 14.31 8.47L14.31 8.47Q14.04 9.00 13.82 9.46Q13.61 9.93 13.43 10.38Q13.24 10.84 13.10 11.29Q12.95 11.75 12.82 12.25L12.82 12.25Q15.51 8.82 16.81 8.82L16.81 8.82Q17.18 8.82 17.60 9.06Q18.02 9.30 18.34 9.70L18.34 9.70Q17.91 10.18 17.44 10.85Q16.98 11.52 16.60 12.20Q16.21 12.88 15.97 13.46Q15.72 14.04 15.72 14.32L15.72 14.32Q15.72 14.46 15.76 14.51Q15.81 14.56 15.95 14.56L15.95 14.56Q16.16 14.56 16.28 14.50Q16.41 14.45 16.44 14.45L16.44 14.45Q16.51 14.56 16.52 14.60Q16.53 14.64 16.53 14.67L16.53 14.67Q16.53 14.73 16.37 14.83Q16.20 14.94 15.97 15.04Q15.74 15.15 15.51 15.23Q15.29 15.32 15.18 15.32L15.18 15.32Q15.04 15.32 14.90 15.24Q14.76 15.16 14.65 15.04Q14.55 14.91 14.48 14.76Q14.42 14.60 14.42 14.43L14.42 14.43Q14.42 14.22 14.54 13.81Q14.66 13.40 14.87 12.85Q15.08 12.29 15.37 11.63Q15.67 10.98 16.00 10.29L16.00 10.29Q16.00 10.23 15.95 10.23L15.95 10.23Q15.90 10.23 15.73 10.35Q15.55 10.46 15.40 10.57L15.40 10.57Q14.90 10.95 14.38 11.50Q13.87 12.05 13.39 12.71Q12.91 13.37 12.48 14.11Q12.05 14.84 11.75 15.58L11.75 15.58Q11.70 15.68 11.62 15.76Q11.54 15.85 11.48 15.85L11.48 15.85Q11.44 15.85 11.36 15.75Q11.28 15.65 11.22 15.51Q11.16 15.36 11.10 15.20Q11.05 15.05 11.05 14.94ZM23.13 9.52L23.13 9.52Q23.27 9.52 23.46 9.57Q23.65 9.62 23.80 9.70Q23.95 9.77 24.06 9.86Q24.16 9.94 24.16 10.01L24.16 10.01Q23.88 10.60 23.65 11.19Q23.41 11.79 23.24 12.33Q23.07 12.88 22.98 13.36Q22.89 13.83 22.89 14.18L22.89 14.18Q22.89 14.57 22.97 14.83Q23.06 15.09 23.25 15.20L23.25 15.20Q23.09 15.32 22.82 15.39Q22.55 15.46 22.34 15.46L22.34 15.46Q21.59 15.46 21.59 14.42L21.59 14.42Q21.59 13.62 22.12 12.24L22.12 12.24Q21.84 12.88 21.48 13.45Q21.11 14.01 20.73 14.45Q20.36 14.88 19.97 15.15Q19.59 15.43 19.26 15.48L19.26 15.48Q18.75 15.46 18.42 14.99Q18.10 14.52 18.10 13.79L18.10 13.79Q18.10 13.01 18.44 12.14Q18.77 11.27 19.30 10.53Q19.82 9.79 20.44 9.29Q21.06 8.79 21.63 8.76L21.63 8.76Q21.77 8.81 21.95 8.93Q22.12 9.06 22.28 9.23Q22.44 9.39 22.55 9.57Q22.67 9.74 22.68 9.87L22.68 9.87Q22.12 9.95 21.53 10.42Q20.93 10.88 20.45 11.53Q19.96 12.18 19.66 12.92Q19.35 13.66 19.35 14.31L19.35 14.31Q19.35 14.57 19.54 14.64L19.54 14.64Q19.95 14.56 20.48 13.95Q21.01 13.34 21.77 12.07L21.77 12.07Q21.91 11.82 22.09 11.51Q22.26 11.20 22.44 10.86Q22.62 10.53 22.80 10.18Q22.97 9.84 23.13 9.52ZM32.97 10.88L32.97 10.88Q32.75 10.89 32.42 11.16Q32.10 11.44 31.73 11.87Q31.36 12.29 30.96 12.81Q30.56 13.33 30.19 13.84Q29.82 14.35 29.50 14.80Q29.18 15.25 28.95 15.51L28.95 15.51Q28.64 15.39 28.42 15.14Q28.20 14.90 28.10 14.53L28.10 14.53Q28.17 14.10 28.29 13.63Q28.42 13.16 28.62 12.66Q28.83 12.15 29.13 11.60Q29.43 11.05 29.86 10.43L29.86 10.43Q29.65 10.44 29.29 10.73Q28.92 11.02 28.50 11.47Q28.08 11.93 27.64 12.50Q27.19 13.06 26.80 13.61L26.80 13.61Q26.28 14.34 25.94 14.88Q25.59 15.43 25.44 15.53L25.44 15.53Q25.07 15.26 24.93 14.95Q24.79 14.64 24.72 14.27L24.72 14.27Q24.74 13.93 24.83 13.43Q24.92 12.92 25.09 12.39L25.09 12.39Q25.41 11.37 25.92 10.36Q26.43 9.35 26.91 8.51L26.91 8.51Q27.30 8.60 27.62 8.78Q27.93 8.96 28.28 9.31L28.28 9.31Q28.14 9.74 27.85 10.23Q27.55 10.71 27.23 11.24Q26.91 11.77 26.64 12.33Q26.38 12.89 26.29 13.47L26.29 13.47Q26.68 12.91 27.22 12.18Q27.76 11.45 28.33 10.81Q28.90 10.16 29.46 9.72Q30.02 9.27 30.46 9.27L30.46 9.27Q30.63 9.27 30.83 9.32Q31.02 9.38 31.19 9.46Q31.36 9.55 31.47 9.63Q31.58 9.70 31.60 9.74L31.60 9.74Q31.53 10.02 31.27 10.51Q31.01 10.99 30.72 11.52Q30.42 12.05 30.17 12.55Q29.92 13.05 29.88 13.34L29.88 13.34Q30.56 12.40 31.16 11.64Q31.77 10.88 32.30 10.33Q32.83 9.79 33.29 9.49Q33.74 9.20 34.15 9.20L34.15 9.20Q34.43 9.20 34.67 9.34Q34.92 9.49 35.01 9.77L35.01 9.77Q34.89 10.19 34.60 10.78Q34.31 11.37 34.02 12.02Q33.73 12.67 33.50 13.30Q33.26 13.93 33.26 14.43L33.26 14.43Q33.26 14.73 33.35 14.82Q33.43 14.91 33.59 14.91L33.59 14.91Q33.75 14.91 33.90 14.85Q34.05 14.78 34.12 14.78L34.12 14.78Q34.20 14.84 34.22 14.92Q34.23 15.01 34.23 15.08L34.23 15.08Q33.95 15.30 33.66 15.45Q33.36 15.60 33.00 15.60L33.00 15.60Q32.66 15.60 32.45 15.48Q32.23 15.37 32.09 15.18Q31.95 14.98 31.89 14.73Q31.84 14.48 31.84 14.18L31.84 14.18Q31.84 13.71 31.96 13.24Q32.09 12.77 32.26 12.34Q32.44 11.91 32.63 11.54Q32.83 11.17 32.97 10.88ZM40.42 9.52L40.42 9.52Q40.56 9.52 40.75 9.57Q40.94 9.62 41.09 9.70Q41.24 9.77 41.35 9.86Q41.45 9.94 41.45 10.01L41.45 10.01Q41.17 10.60 40.94 11.19Q40.70 11.79 40.53 12.33Q40.36 12.88 40.27 13.36Q40.18 13.83 40.18 14.18L40.18 14.18Q40.18 14.57 40.26 14.83Q40.35 15.09 40.54 15.20L40.54 15.20Q40.38 15.32 40.11 15.39Q39.84 15.46 39.63 15.46L39.63 15.46Q38.88 15.46 38.88 14.42L38.88 14.42Q38.88 13.62 39.41 12.24L39.41 12.24Q39.13 12.88 38.77 13.45Q38.40 14.01 38.02 14.45Q37.65 14.88 37.26 15.15Q36.88 15.43 36.55 15.48L36.55 15.48Q36.04 15.46 35.71 14.99Q35.39 14.52 35.39 13.79L35.39 13.79Q35.39 13.01 35.73 12.14Q36.06 11.27 36.59 10.53Q37.11 9.79 37.73 9.29Q38.35 8.79 38.92 8.76L38.92 8.76Q39.06 8.81 39.24 8.93Q39.41 9.06 39.57 9.23Q39.73 9.39 39.84 9.57Q39.96 9.74 39.97 9.87L39.97 9.87Q39.41 9.95 38.82 10.42Q38.22 10.88 37.74 11.53Q37.25 12.18 36.95 12.92Q36.64 13.66 36.64 14.31L36.64 14.31Q36.64 14.57 36.83 14.64L36.83 14.64Q37.24 14.56 37.77 13.95Q38.30 13.34 39.06 12.07L39.06 12.07Q39.20 11.82 39.38 11.51Q39.55 11.20 39.73 10.86Q39.91 10.53 40.09 10.18Q40.26 9.84 40.42 9.52Z"></path></g><!----><!----><g data-v-423bf9ae="" id="2f3fbc8c-e95c-4ef8-973b-bab0cf8b1405" fill="#ffffff" transform="matrix(6.825937855593543,0,0,6.825937855593543,-2.4573350555612024,93.88737643409172)"><path d="M4.40 6.98L3.04 10.75L5.72 10.75L4.40 6.98ZM3.08 14.40L0.36 14.40L0.39 14.11L1.36 13.90L4.35 5.82L4.72 5.73L7.55 13.95L8.46 14.08L8.40 14.39L5.61 14.39L5.67 14.10L6.80 13.90L5.85 11.13L2.90 11.13L1.89 13.95L3.14 14.08L3.08 14.40ZM17.31 6.33L16.13 6.16L16.17 5.89L19.29 5.89L19.24 6.16L18.05 6.32L18.05 13.95L19.37 14.08L19.30 14.40L16.19 14.40L16.23 14.11L17.31 13.90L17.31 6.33ZM28.90 6.18L28.90 10.11L30.45 10.11Q31.13 9.86 31.59 9.28Q32.05 8.70 32.05 8.02L32.05 8.02Q32.05 7.11 31.43 6.63Q30.81 6.15 29.72 6.15L29.72 6.15L28.90 6.18ZM30.27 14.40L27.08 14.40L27.13 14.11L28.19 13.90L28.19 6.51L27.10 6.37L27.16 6.13Q28.98 5.83 30.06 5.83L30.06 5.83Q30.83 5.83 31.44 6.05Q32.05 6.27 32.42 6.73Q32.80 7.19 32.80 7.83L32.80 7.83Q32.80 8.57 32.37 9.14Q31.94 9.72 30.91 10.23L30.91 10.23L30.91 10.23L32.23 12.19Q32.94 13.23 33.29 13.58Q33.63 13.92 34.02 14.05L34.02 14.05L34.34 14.16L34.30 14.42Q34.01 14.52 33.67 14.52L33.67 14.52Q33.38 14.52 33.13 14.40Q32.87 14.28 32.63 14.01Q32.39 13.75 32.20 13.48Q32.02 13.22 31.75 12.77L31.75 12.77L30.36 10.49L28.90 10.49L28.90 13.95L30.34 14.08L30.27 14.40ZM48.20 14.40L42.05 14.40L42.08 14.11L43.24 13.90L43.24 6.34L42.06 6.17L42.09 5.90L45.20 5.90L45.17 6.17L43.97 6.32L43.97 14.03L47.59 14.03L48.12 12.09L48.42 12.14L48.20 14.40ZM57.30 6.33L56.12 6.16L56.16 5.89L59.28 5.89L59.23 6.16L58.04 6.32L58.04 13.95L59.36 14.08L59.29 14.40L56.18 14.40L56.22 14.11L57.30 13.90L57.30 6.33ZM68.31 6.36L67.05 6.14L67.10 5.89L69.17 5.89L73.90 13.17L73.90 6.33L72.65 6.16L72.69 5.89L75.58 5.89L75.53 6.16L74.40 6.32L74.40 14.44L74.03 14.52L68.82 6.65L68.82 13.95L70.08 14.08L70.01 14.40L67.13 14.40L67.17 14.11L68.31 13.90L68.31 6.36ZM84.49 6.36L83.27 6.18L83.32 5.89L89.51 5.89L89.30 8.07L88.98 8.03L88.85 6.24L85.20 6.24L85.20 9.89L87.49 9.89L87.75 8.94L88.12 8.89L87.89 11.55L87.54 11.61L87.43 10.26L85.20 10.26L85.20 14.03L89.04 14.03L89.55 12.19L89.83 12.26L89.63 14.40L83.29 14.40L83.33 14.11L84.49 13.90L84.49 6.36Z"></path></g></svg>